<svg xmlns="http://www.w3.org/2000/svg" width="35" height="35" viewBox="113 156.097 35 35"><g data-name="004-google-plus"><g data-name="Group 40"><path d="M113 173.547a17.5 17.5 0 1 1 0 .1z" fill="#dc4e41" fill-rule="evenodd" data-name="XMLID_30_"/></g><g data-name="Group 42"><path d="M118.58 174.28c-.064 3.098 2.07 6.055 5.006 7.02 2.766.93 6.167.234 8.007-2.134 1.344-1.66 1.649-3.873 1.504-5.94-2.369-.02-4.738-.014-7.103-.01-.003.844 0 1.684.004 2.528 1.418.04 2.837.021 4.255.05-.358 1.226-1.174 2.368-2.411 2.811-2.39 1.053-5.44-.322-6.191-2.83-.908-2.4.578-5.297 3.031-5.995 1.522-.535 3.089.067 4.39.858a33.587 33.587 0 0 0 1.883-1.943c-1.479-1.238-3.38-1.996-5.333-1.83-3.833.046-7.188 3.585-7.042 7.414Z" fill="#dc4e41" fill-rule="evenodd" data-name="Path 21"/><path d="M137.706 171.088c-.007.705-.014 1.415-.018 2.12-.71.007-1.415.01-2.12.014v2.114c.705.003 1.415.007 2.12.014.007.706.007 1.411.014 2.12.702 0 1.408-.003 2.113 0 .004-.709.008-1.414.015-2.124l2.12-.01v-2.113c-.705-.004-1.414-.007-2.12-.015l-.015-2.12h-2.109Z" fill="#dc4e41" fill-rule="evenodd" data-name="Path 22"/><g data-name="Group 41"><path d="M118.58 174.28c-.146-3.83 3.209-7.369 7.042-7.415 1.953-.167 3.854.592 5.333 1.83a33.696 33.696 0 0 1-1.883 1.943c-1.302-.791-2.869-1.394-4.39-.859-2.454.7-3.94 3.596-3.032 5.996.752 2.507 3.802 3.883 6.191 2.83 1.238-.443 2.054-1.585 2.411-2.812-1.418-.028-2.836-.01-4.254-.05-.004-.843-.007-1.684-.004-2.527 2.365-.004 4.734-.011 7.102.01.146 2.067-.16 4.28-1.503 5.94-1.84 2.368-5.24 3.063-8.007 2.134-2.935-.965-5.07-3.922-5.006-7.02Z" fill="#fff" fill-rule="evenodd" data-name="Path 23"/><path d="M137.706 171.088h2.11c.003.705.01 1.415.014 2.12.705.007 1.415.01 2.12.014v2.114l-2.12.01c-.007.71-.01 1.415-.015 2.124-.705-.004-1.41 0-2.113 0-.007-.71-.007-1.415-.014-2.12-.705-.008-1.415-.011-2.12-.015v-2.113c.705-.004 1.411-.007 2.12-.014.004-.705.01-1.415.018-2.12Z" fill="#fff" fill-rule="evenodd" data-name="Path 24"/></g></g></g></svg>